<svg id="Layer_1" data-name="Layer 1" xmlns="http://www.w3.org/2000/svg" viewBox="0 0 128 128"><defs><style>.cls-1{fill:#fff}</style></defs><path class="cls-1" d="M44.376 17.226h39.248l4.272 7.721h8.551L88.031 9.745H39.969l-8.416 15.202h8.551l4.272-7.721zm12.222 64.681a7.402 7.402 0 0014.804 0V71.418H56.598z"/><path class="cls-1" d="M118.99 30.258H9.01a7.905 7.905 0 00-7.905 7.904v29.363a7.913 7.913 0 004.581 7.178v32.664a10.9 10.9 0 0010.888 10.888h94.852a10.9 10.9 0 0010.888-10.888V74.703a7.913 7.913 0 004.581-7.178V38.162a7.905 7.905 0 00-7.904-7.904zm-4.158 77.11a3.41 3.41 0 01-3.406 3.406H16.574a3.41 3.41 0 01-3.406-3.407V76.245a319.636 319.636 0 0038.941 3.874v-13.19h23.782v13.19a319.636 319.636 0 0038.941-3.874z"/></svg>