<svg xmlns="http://www.w3.org/2000/svg" viewBox="0 0 48 48"><path d="M44.79 3.21a4.12 4.12 0 010 5.83l-.73.73-5.83-5.83.77-.73a4.12 4.12 0 015.79 0z" fill="#fff"/><path fill="#fc3768" d="M38.23 3.94L28.09 14.09l-4 4-1.17 1.16-1.46 7.29 7.29-1.46 7.17-7.16 4-4 4.14-4.15-5.83-5.83z"/><path fill="#6d7c8c" d="M24 18l.09.09-1.17 1.16-1.46 7.29 7.29-1.46 7.17-7.16.08.08h6v24H14V18h10z"/><path d="M46 16v28a2 2 0 01-2 2H4a2 2 0 01-2-2V16a2 2 0 012-2h24l.09.09-4 4L24 18H14v24h28V18h-6l-.08-.08 4-4L40 14h4a2 2 0 012 2z" fill="#fff"/><path d="M44 47H4a3 3 0 01-3-3V16a3 3 0 013-3h24a1 1 0 010 2H4a1 1 0 00-1 1v28a1 1 0 001 1h40a1 1 0 001-1V16a1 1 0 00-1-1h-4a1 1 0 010-2h4a3 3 0 013 3v28a3 3 0 01-3 3z" fill="#252b33"/><path d="M42 43H14a1 1 0 01-1-1V18a1 1 0 011-1h10a1 1 0 010 2h-9v22h26V19h-5a1 1 0 010-2h6a1 1 0 011 1v24a1 1 0 01-1 1zM8 22a2 2 0 112-2 2 2 0 01-2 2zm0-2zm0 8a2 2 0 112-2 2 2 0 01-2 2zm0-2z" fill="#252b33"/><path d="M21.46 27.54a1 1 0 01-.71-.29 1 1 0 01-.27-.9l1.46-7.3a1 1 0 01.27-.51l16-16a5.13 5.13 0 017.29 7.21l-16 16a1 1 0 01-.51.27l-7.3 1.46a.62.62 0 01-.23.06zm2.38-7.8l-1.11 5.53 5.53-1.11L44.08 8.33a3.12 3.12 0 00-4.41-4.41z" fill="#252b33"/><path d="M20 29a1 1 0 01-.71-.29 1 1 0 010-1.42l1.46-1.46a1 1 0 011.42 1.42l-1.46 1.46A1 1 0 0120 29zm24.06-18.23a1 1 0 01-.7-.29l-5.84-5.84a1 1 0 010-1.41 1 1 0 011.42 0l5.83 5.83a1 1 0 010 1.42 1 1 0 01-.71.29z" fill="#252b33"/><path d="M36 35a1 1 0 01-.77-.36l-2.69-3.23a2.06 2.06 0 00-3.08 0l-.59.71A4 4 0 0126 33.55a4 4 0 01-3-1.17l-3.68-3.67a1 1 0 011.42-1.42L24.38 31a2 2 0 001.51.58 2 2 0 001.45-.71l.59-.71a4 4 0 016.14 0l2.7 3.23a1 1 0 01-.13 1.41 1 1 0 01-.64.2z" fill="#252b33"/></svg>