<svg id="Layer_1" data-name="Layer 1" xmlns="http://www.w3.org/2000/svg" viewBox="0 0 128 128"><defs><style>.cls-1{fill:#2b77c0}</style></defs><path class="cls-1" d="M39.862 68.552a3.502 3.502 0 000 7.005h8.508a3.502 3.502 0 000-7.005zm31.369 0a3.502 3.502 0 000 7.005h8.508a3.502 3.502 0 000-7.005z"/><path d="M69.075 111.17a17.86 17.86 0 01-9.274 2.942c-16.251 0-33.651-29.616-33.651-50.462q0-1.051.084-2.102a87.412 87.412 0 0044.494-12.132 86.831 86.831 0 0022.107 7.845 32.072 32.072 0 01.616 6.389c0 9.442-3.586 20.678-8.994 30.148a61.59 61.59 0 0011.628-4.455c3.67-8.742 5.772-17.904 5.772-25.693a42.317 42.317 0 00-.308-5.016 42.046 42.046 0 00-83.72 2.522 36.418 36.418 0 00-.085 2.494c0 23.227 18.829 58.868 42.057 58.868 8.798 0 16.923-5.072 23.648-12.665a72.522 72.522 0 01-14.122 1.317z" fill="#3b4551"/><path class="cls-1" d="M117.426 71.85a64.876 64.876 0 00.539-8.2 61.63 61.63 0 00-.415-6.908A58.161 58.161 0 001.751 59.999a48.763 48.763 0 00-.121 3.65 3.502 3.502 0 007.004 0c0-1.06.026-2.096.106-3.182a51.139 51.139 0 0187.623-32.575A51.617 51.617 0 01110.59 57.54a54.34 54.34 0 01.37 6.11 60.038 60.038 0 01-.874 9.95l-.548 3.24 3.198.754a8.613 8.613 0 016.63 8.443 8.71 8.71 0 01-8.685 8.713 8.472 8.472 0 01-6-2.436l-1.864-1.839-2.292 1.266a62.83 62.83 0 01-34.948 8.106 6.567 6.567 0 10-.542 6.982c1.444.073 2.874.125 4.278.125A68.463 68.463 0 00101.804 99a15.487 15.487 0 008.877 2.755 15.72 15.72 0 006.745-29.905z"/></svg>