<svg version="1.1" id="Layer_1" xmlns="http://www.w3.org/2000/svg" x="0" y="0" viewBox="0 0 24 24" xml:space="preserve"><style/><linearGradient id="SVGID_1_" gradientUnits="userSpaceOnUse" x1="2.266" y1="11.733" x2="20.665" y2="11.733"><stop offset="0" stop-color="#1245c6"/><stop offset="1" stop-color="#9909b7"/></linearGradient><path d="M19.7 8.2c-.6-.7-1.5-1-2.6-1-.6-.5-1.3-.7-2.1-.7h-.5c-.5-.2-1-.4-1.5-.4v-2c0-.8-.3-1.6-.9-2.2-.6-.6-1.3-.9-2.2-.9-.8 0-1.5.3-2.1.9-.6.6-.9 1.3-.9 2.2v4.5c-.5-.2-1-.3-1.5-.3-1 0-1.7.3-2.3 1-.5.7-.8 1.5-.8 2.5 0 .3.1.6.2.8.1.3.3.5.6.7.3.2.5.3.8.5.2.1.5.3.9.4.3.2.6.3.7.4.4.3 1 .7 1.5 1.2l.2.2c.1.1.2.2.3.2.1.1.1.1.3.2l.3.3c.1.1.1.2.2.3.1.1.1.2.2.3 0 .1.1.2.1.3v3.5c0 .4.1.8.4 1.1.3.3.7.4 1.1.4h7.7c.4 0 .8-.1 1.1-.4.3-.3.4-.7.4-1.1v-3.5c0-.5.2-1.4.7-2.7.6-1.5.8-2.8.8-3.9-.1-1.2-.5-2.1-1.1-2.8zm-2.3 12.5c-.2.2-.3.2-.5.2s-.4-.1-.5-.2c-.2-.2-.2-.3-.2-.5s.1-.4.2-.5c.2-.2.3-.2.5-.2s.4.1.5.2c.2.2.2.3.2.5s-.1.4-.2.5zm1.3-7.5c-.3.8-.5 1.6-.8 2.3-.3.8-.4 1.4-.4 2v.4H9.9v-.4c0-.6-.2-1.1-.7-1.7L8 14.6c-.6-.6-1.2-1-1.7-1.3-.2-.1-.4-.3-.8-.4-1.1-.5-1.7-.9-1.7-1.1 0-.6.1-1 .4-1.4.2-.4.6-.6 1.1-.6.3 0 .7.1 1 .2.3.1.6.3.8.4s.4.3.7.4c.2.1.4.2.6.2V4.1c0-.4.2-.8.5-1.1.3-.3.7-.5 1.1-.5.4 0 .8.2 1.1.5.3.3.5.7.5 1.1v4c.1-.1.3-.2.6-.3.2-.1.5-.1.7-.1.6 0 1 .2 1.4.6.1-.2.4-.3.7-.3.3 0 .6.1.9.2.3.1.5.3.6.6.2 0 .5-.1.7-.1 1.3 0 2 .8 2 2.3-.1.7-.2 1.4-.5 2.2z" fill="url(#SVGID_1_)"/></svg>