<svg xmlns="http://www.w3.org/2000/svg" viewBox="0 0 512 512"><circle cx="256" cy="256" r="256" fill="#ffe17d"/><path d="M293.161 474.839c-141.385 0-256-114.615-256-256 0-61.227 21.521-117.411 57.376-161.463C36.863 104.316 0 175.842 0 256c0 141.385 114.615 256 256 256 80.159 0 151.685-36.864 198.626-94.538-44.053 35.855-100.237 57.377-161.465 57.377z" fill="#ffd164"/><path d="M255.941 319.79c-46.603 0-91.087-5.012-131.899-14.073-5.286-1.174-9.842 3.942-8.212 9.273 18.821 61.549 74.376 106.199 140.11 106.199s121.289-44.65 140.11-106.199c1.63-5.332-2.925-10.447-8.212-9.273-40.81 9.061-85.294 14.073-131.897 14.073z" fill="#9c6846"/><path d="M256.019 355.097c43.239 0 85.891-4.091 127.861-11.415 4.934-9.049 9.09-18.613 12.171-28.69 1.631-5.332-2.925-10.447-8.212-9.274-40.811 9.06-85.295 14.073-131.898 14.073-46.603 0-91.088-5.012-131.899-14.073-5.286-1.173-9.842 3.942-8.212 9.274 3.078 10.066 7.229 19.621 12.156 28.662 42.025 7.343 84.735 11.443 128.033 11.443z" fill="#7d5046"/><path d="M180.694 247.512c14.037-17.648 47.271-65.028 28.317-97.235-7.327-12.45-21.745-19.554-36.098-17.914-11.657 1.332-21.01 7.456-26.878 15.882a9.363 9.363 0 01-10.746 3.52c-9.716-3.32-20.88-2.724-31.066 3.099-12.542 7.17-19.962 21.427-18.503 35.799 3.774 37.179 58.6 55.715 80.358 61.638a14.002 14.002 0 0014.616-4.789zm150.612 0c-14.037-17.648-47.271-65.028-28.317-97.235 7.327-12.45 21.745-19.554 36.098-17.914 11.657 1.332 21.01 7.456 26.878 15.882a9.363 9.363 0 0010.746 3.52c9.716-3.32 20.88-2.724 31.066 3.099 12.542 7.17 19.962 21.427 18.503 35.799-3.774 37.179-58.6 55.715-80.358 61.638a14.002 14.002 0 01-14.616-4.789z" fill="#e6646e"/><path d="M187.895 230.736c-21.758-5.923-76.584-24.459-80.358-61.638-.589-5.801.329-11.558 2.386-16.863-1.921.725-3.83 1.559-5.7 2.629-12.542 7.169-19.962 21.427-18.503 35.799 3.774 37.179 58.6 55.715 80.358 61.638a14 14 0 0014.616-4.788c3.228-4.058 7.48-9.74 11.871-16.398-1.549.113-3.119.043-4.67-.379z" fill="#dc4655"/><path d="M331.306 247.512c-14.037-17.648-47.271-65.028-28.317-97.235 7.327-12.45 21.745-19.554 36.098-17.914 11.657 1.332 21.01 7.456 26.878 15.882a9.363 9.363 0 0010.746 3.52c9.716-3.32 20.88-2.724 31.066 3.099 12.542 7.17 19.962 21.427 18.503 35.799-3.774 37.179-58.6 55.715-80.358 61.638a14.002 14.002 0 01-14.616-4.789z" fill="#e6646e"/><path d="M359.037 242.464c-14.037-17.648-47.271-65.029-28.317-97.235 2.93-4.979 7.025-9.052 11.766-12.104-1.145-.234-2.205-.626-3.4-.762-14.353-1.64-28.771 5.464-36.098 17.914-18.954 32.207 14.28 79.588 28.317 97.235a14.001 14.001 0 0014.616 4.788c4.814-1.31 11.288-3.279 18.428-5.889-2.015-.896-3.884-2.151-5.312-3.947z" fill="#dc4655"/></svg>