<svg xmlns="http://www.w3.org/2000/svg" viewBox="0 0 512 512"><path d="M222.987 256L3.494 434.047A12.058 12.058 0 010 425.555V86.446c0-3.3 1.335-6.309 3.494-8.493L222.987 256zM512 86.446v339.109c0 3.3-1.335 6.309-3.494 8.493L289.013 256 508.506 77.953A12.058 12.058 0 01512 86.446z" fill="#ff9e24"/><path d="M499.867 74.313H12.133c-3.373 0-6.43 1.395-8.638 3.64L256 340.929 508.506 77.953c-2.208-2.245-5.266-3.64-8.639-3.64z" fill="#ffe1d6"/><path d="M337.544 256l170.962 178.047c-2.208 2.245-5.266 3.64-8.638 3.64H12.133c-3.373 0-6.43-1.395-8.638-3.64L174.456 256 256 340.929 337.544 256z" fill="#ffb14d"/></svg>