<svg data-name="Layer 1" xmlns="http://www.w3.org/2000/svg" viewBox="0 0 128 128"><path d="M111.58 16.411a45.928 45.928 0 00-70.283 58.55 45.482 45.482 0 003.115 4.01l-4.069 4.07-4.923-4.923-29.56 30.068a9.86 9.86 0 1013.955 13.934l29.55-30.055-3.557-3.552-.862-.861 4.076-4.076q1.617 1.402 3.328 2.63a45.923 45.923 0 0059.23-69.794zm-9.982 54.963a31.843 31.843 0 119.301-22.493 31.707 31.707 0 01-9.301 22.493z" fill="wheat"/><path d="M92.748 45.49a13.642 13.642 0 01-12.993-17.8 21.214 21.214 0 1019.9 15.93 13.652 13.652 0 01-6.907 1.87z" fill="#2e79bd"/></svg>