<svg id="Layer_1" data-name="Layer 1" xmlns="http://www.w3.org/2000/svg" viewBox="0 0 128 128"><defs><style>.cls-1{fill:#2e79bd}.cls-2{fill:#2d3e50}</style></defs><path class="cls-1" d="M71.169 53.157a14.34 14.34 0 01.173-1.915 5.553 5.553 0 01.179-.807 4.423 4.423 0 00.121-.592 3.14 3.14 0 00-.2-1.744 1.136 1.136 0 00-1.045-.689.693.693 0 00-.264.002 2.64 2.64 0 00-1.198.68 6.68 6.68 0 01-.244.195 56.07 56.07 0 00-1.021.774c-.31.24-.622.479-.938.713l-.091.073c-.3.221-.605.434-.911.647l-.364.254c-.225.16-.451.31-.677.461-.054.036-.12.073-.188.11a1.62 1.62 0 00-.538.41.948.948 0 00-.098.966 1.808 1.808 0 001.297.954 2.332 2.332 0 001.437-.373c.18-.103.355-.217.529-.328a6.101 6.101 0 01.796-.46 1.833 1.833 0 01.196-.074 10.892 10.892 0 01.002 3.228c-.05.535-.099 1.04-.112 1.53a173.52 173.52 0 00-.087 5.296c-.004.457.005.958.02 1.506.003.199.008.398.022.605.012.34.025.695.043 1.089l-.05.04-.036.032a3.16 3.16 0 01-.857.357l-.184.057c-.155.051-.345.098-.55.149-.967.24-2.427.603-2.28 1.931a1.823 1.823 0 00.759 1.174 1.372 1.372 0 001.585.038c.075-.032.151-.065.23-.095l.195-.08c.122-.05.245-.1.383-.149a14.57 14.57 0 011.414-.504c.006-.008.033.006.075.033a1.95 1.95 0 01.337.304 1.548 1.548 0 00.496.4 1.966 1.966 0 00.863.06 2.661 2.661 0 001.265-.452.887.887 0 00.396-.824 4.476 4.476 0 00-.069-.38l-.025-.121c-.02-.087-.032-.161-.043-.227l-.021-.128a4.125 4.125 0 011.392-.503l.302-.074a4.196 4.196 0 001.566-.618c.294-.21.28-.674.243-1.003a1.789 1.789 0 00-.066-.313 2.894 2.894 0 00-.454-.931.59.59 0 00-.382-.225 1.367 1.367 0 00-.685.174c-.056.025-.108.049-.155.066q-.413.155-.828.304a15.613 15.613 0 01-1.545.488 2.366 2.366 0 01-.108.025l-.03-.113-.013-.046a3.497 3.497 0 01-.073-.443 2.09 2.09 0 01-.015-.219l-.018-.155a7.898 7.898 0 00-.014-.206c-.005-.068-.01-.133-.012-.197-.003-.065-.008-.127-.012-.184-.004-.058-.008-.112-.01-.186a1.813 1.813 0 01-.012-.144 1.987 1.987 0 00-.007-.107 44.827 44.827 0 01.15-8.438c.03-.363.047-.722.064-1.078zm9.5 3.074q-.322.04-.673.1l-.28.049c-.593.102-1.204.21-1.81.263-.081.008-.186.008-.303.009-.533.005-1.263.011-1.5.53a1.398 1.398 0 00.178 1.531 1.437 1.437 0 001.41.153 3.54 3.54 0 01.353-.07c.78-.095 1.544-.181 2.304-.202.135-.003.259-.012.37-.02l.035-.003.005.146c.015.428.03.819.034 1.169l.003.067a.251.251 0 00.002.052 7.343 7.343 0 00.154 1.946c.16.576.634.825 1.406.74h.006a1.035 1.035 0 00.747-.333.905.905 0 00.105-.717c-.024-.137-.04-.283-.06-.458l-.007-.071a18.202 18.202 0 01-.126-2.38c.018-.134.038-.253.073-.405.099-.011.188-.023.254-.037a2.417 2.417 0 00.391-.044 10.079 10.079 0 011.691-.183c.13-.004.263 0 .398.004a3.405 3.405 0 00.955-.06.928.928 0 00.614-.405 1.263 1.263 0 00.015-.964 1.24 1.24 0 00-.955-1.012 5.314 5.314 0 00-2.047.07 7.388 7.388 0 01-1.264.135 4.359 4.359 0 01-.262-.013 13.27 13.27 0 01-.218-1.356c-.01-.087-.013-.224-.017-.39-.023-.947-.085-1.904-.553-2.313a.759.759 0 00-.597-.184 1.177 1.177 0 00-.848.458c-.489.66-.265 1.85-.085 2.805a6.098 6.098 0 01.138.968 2.964 2.964 0 01-.032.394zm17.156.395c-.278.336-.564.674-.861 1.004-.387.431-.79.854-1.197 1.253a18.012 18.012 0 01-2.56 2.071c-.401.264-.768.506-1.107.754a6.595 6.595 0 00-1.896 2.11l-.03.056c-.015.03-.031.059-.042.083-.404.836-.647 2.391.418 3.005a1.156 1.156 0 00.724.161 2.763 2.763 0 001.338-.759 4.51 4.51 0 01.528-.404 11.237 11.237 0 012.833-1.173 15.856 15.856 0 012.383-.477 27.56 27.56 0 013.647-.16c.088 0 .174.006.256.011a1.316 1.316 0 001.243-.414 2.2 2.2 0 00.455-1.518l-.008-.175a1.021 1.021 0 00-.352-.748.962.962 0 00-.753-.107 1.864 1.864 0 01-.163.021c-.156.013-.313.023-.469.034-.159.01-.318.021-.472.034-1.169.076-2.378.154-3.563.285l-.17.019c-.468.05-.87.104-1.213.15a20.203 20.203 0 001.483-1.267c.06-.058.122-.115.186-.172l.01-.008c.338-.33.683-.68 1.008-1.029a2.246 2.246 0 00.169-.171l.093-.1a25.769 25.769 0 002.287-2.875c.442-.639.822-1.228 1.164-1.804l.187-.316a7.093 7.093 0 001.372-3.865 4.265 4.265 0 00-.166-.977 7.239 7.239 0 00-3.6-4.107 6.14 6.14 0 00-1.732-.585 7.092 7.092 0 00-4.847 1.01 1.115 1.115 0 00-.162.098 15.206 15.206 0 00-1.907 1.29l-.051.04-.027.058a1.524 1.524 0 00-.078 1.036 2.032 2.032 0 00.628 1.06 1.35 1.35 0 001.188.366l.07-.013.053-.047c.104-.09.217-.182.33-.27a11.268 11.268 0 011.138-.843l.059-.039a.596.596 0 00.07-.045 4.895 4.895 0 011.23-.585 2.719 2.719 0 01.516-.082 3.418 3.418 0 012.823 1.3 3.19 3.19 0 01.585 2.88 14.79 14.79 0 01-3.048 4.946z"/><path class="cls-2" d="M18.913 49.88a6.553 6.553 0 0012.865 0l1-5.156a6.902 6.902 0 00-6.838-7.832h-1.19a6.902 6.902 0 00-6.838 7.832z"/><path class="cls-2" d="M49.003 67.578a3.522 3.522 0 003.144-1.994l6.806-14.051a3.237 3.237 0 00-5.727-3.01l-6.393 11.304s-13.677-1.808-14.78-1.948a1.67 1.67 0 00-.338-.012h-.012l-.11-.018a1.599 1.599 0 00-.63.041l-.17-.052-3.29 3.29-1.772 1.76-.461.473-.117.117-.128-.134v-.041l-.023.023-.024-.023v.04l-.128.135-.577-.59-1.774-1.76-3.29-3.29-.168.052a1.607 1.607 0 00-.63-.04c-1.202.157-6.288 1.201-8.143 1.586a2.674 2.674 0 00-1.423.77 4.7 4.7 0 00-.694.968l-4.49 8.317-1.832 3.383-.204.38a3.335 3.335 0 00-.035 3.062L7.725 88.47a3.108 3.108 0 003.576 1.604 2.084 2.084 0 00.408-.135 2.719 2.719 0 00.583-.326v2.745a12.449 12.449 0 0012.45 12.449 12.447 12.447 0 0012.444-12.159c.155-6.701.31-13.941.467-19.5l.058-2.036c0-.07.006-.146.006-.222.046-1.505.093-3.202.093-3.237l7.512-.052 3.284-.024zM12.293 83.28L8.95 75.318l3.342-4.438z"/><path class="cls-1" d="M122.684 23.192H45.848a4.082 4.082 0 00-4.081 4.082v.762a4.085 4.085 0 004.081 4.081V55.96l4.98-8.795a6.072 6.072 0 01.646-.922V35.15h65.584v43.748H51.474v-9.081a6.183 6.183 0 01-2.447.516l-3.179.02V81.11a3.416 3.416 0 003.42 3.414h70.001a3.415 3.415 0 003.415-3.414V32.117a4.085 4.085 0 004.081-4.081v-.762a4.082 4.082 0 00-4.081-4.082z"/></svg>